<mxfile host="app.diagrams.net" modified="2023-12-19T08:43:35.086Z" agent="Mozilla/5.0 (Windows NT 10.0; Win64; x64) AppleWebKit/537.36 (KHTML, like Gecko) Chrome/120.0.0.0 Safari/537.36" etag="kT8f21SK5wtricz17u_x" version="22.1.11" type="device">
  <diagram name="Page-1" id="QL7YsjuRw9iAZQLIakYa">
    <mxGraphModel dx="1852" dy="868" grid="1" gridSize="10" guides="1" tooltips="1" connect="1" arrows="1" fold="1" page="1" pageScale="1" pageWidth="850" pageHeight="1100" math="0" shadow="0">
      <root>
        <mxCell id="0" />
        <mxCell id="1" parent="0" />
        <mxCell id="s3CJ5mOEq1aCEsFTGVXM-5" style="edgeStyle=orthogonalEdgeStyle;rounded=0;orthogonalLoop=1;jettySize=auto;html=1;exitX=1;exitY=0.5;exitDx=0;exitDy=0;" edge="1" parent="1" source="s3CJ5mOEq1aCEsFTGVXM-1" target="s3CJ5mOEq1aCEsFTGVXM-2">
          <mxGeometry relative="1" as="geometry" />
        </mxCell>
        <mxCell id="s3CJ5mOEq1aCEsFTGVXM-6" value="search database wit Ajax automatically" style="edgeLabel;html=1;align=center;verticalAlign=middle;resizable=0;points=[];" vertex="1" connectable="0" parent="s3CJ5mOEq1aCEsFTGVXM-5">
          <mxGeometry x="-0.0105" relative="1" as="geometry">
            <mxPoint as="offset" />
          </mxGeometry>
        </mxCell>
        <mxCell id="s3CJ5mOEq1aCEsFTGVXM-1" value="User enter vehilce no" style="shape=parallelogram;perimeter=parallelogramPerimeter;whiteSpace=wrap;html=1;fixedSize=1;" vertex="1" parent="1">
          <mxGeometry x="110" y="150" width="180" height="60" as="geometry" />
        </mxCell>
        <mxCell id="s3CJ5mOEq1aCEsFTGVXM-2" value="If" style="rhombus;whiteSpace=wrap;html=1;" vertex="1" parent="1">
          <mxGeometry x="490" y="145" width="140" height="70" as="geometry" />
        </mxCell>
        <mxCell id="s3CJ5mOEq1aCEsFTGVXM-16" style="edgeStyle=orthogonalEdgeStyle;rounded=0;orthogonalLoop=1;jettySize=auto;html=1;exitX=0.5;exitY=1;exitDx=0;exitDy=0;" edge="1" parent="1" source="s3CJ5mOEq1aCEsFTGVXM-7" target="s3CJ5mOEq1aCEsFTGVXM-15">
          <mxGeometry relative="1" as="geometry" />
        </mxCell>
        <mxCell id="s3CJ5mOEq1aCEsFTGVXM-7" value="Fill the fields" style="rounded=0;whiteSpace=wrap;html=1;" vertex="1" parent="1">
          <mxGeometry x="490" y="360" width="120" height="60" as="geometry" />
        </mxCell>
        <mxCell id="s3CJ5mOEq1aCEsFTGVXM-23" style="edgeStyle=orthogonalEdgeStyle;rounded=0;orthogonalLoop=1;jettySize=auto;html=1;entryX=0;entryY=0.5;entryDx=0;entryDy=0;" edge="1" parent="1" source="s3CJ5mOEq1aCEsFTGVXM-8" target="s3CJ5mOEq1aCEsFTGVXM-22">
          <mxGeometry relative="1" as="geometry" />
        </mxCell>
        <mxCell id="s3CJ5mOEq1aCEsFTGVXM-8" value="&lt;br&gt;Display no records found message" style="rounded=0;whiteSpace=wrap;html=1;" vertex="1" parent="1">
          <mxGeometry x="730" y="145" width="210" height="65" as="geometry" />
        </mxCell>
        <mxCell id="s3CJ5mOEq1aCEsFTGVXM-9" style="edgeStyle=orthogonalEdgeStyle;rounded=0;orthogonalLoop=1;jettySize=auto;html=1;exitX=0.5;exitY=1;exitDx=0;exitDy=0;entryX=0.583;entryY=0.167;entryDx=0;entryDy=0;entryPerimeter=0;" edge="1" parent="1" source="s3CJ5mOEq1aCEsFTGVXM-2" target="s3CJ5mOEq1aCEsFTGVXM-7">
          <mxGeometry relative="1" as="geometry" />
        </mxCell>
        <mxCell id="s3CJ5mOEq1aCEsFTGVXM-10" value="Records exists" style="edgeLabel;html=1;align=center;verticalAlign=middle;resizable=0;points=[];" vertex="1" connectable="0" parent="s3CJ5mOEq1aCEsFTGVXM-9">
          <mxGeometry x="-0.3186" y="2" relative="1" as="geometry">
            <mxPoint as="offset" />
          </mxGeometry>
        </mxCell>
        <mxCell id="s3CJ5mOEq1aCEsFTGVXM-11" style="edgeStyle=orthogonalEdgeStyle;rounded=0;orthogonalLoop=1;jettySize=auto;html=1;exitX=1;exitY=0.5;exitDx=0;exitDy=0;entryX=0.017;entryY=0.633;entryDx=0;entryDy=0;entryPerimeter=0;" edge="1" parent="1" source="s3CJ5mOEq1aCEsFTGVXM-2" target="s3CJ5mOEq1aCEsFTGVXM-8">
          <mxGeometry relative="1" as="geometry" />
        </mxCell>
        <mxCell id="s3CJ5mOEq1aCEsFTGVXM-12" value="No record" style="edgeLabel;html=1;align=center;verticalAlign=middle;resizable=0;points=[];" vertex="1" connectable="0" parent="s3CJ5mOEq1aCEsFTGVXM-11">
          <mxGeometry x="-0.1813" y="-4" relative="1" as="geometry">
            <mxPoint as="offset" />
          </mxGeometry>
        </mxCell>
        <mxCell id="s3CJ5mOEq1aCEsFTGVXM-18" style="edgeStyle=orthogonalEdgeStyle;rounded=0;orthogonalLoop=1;jettySize=auto;html=1;exitX=1;exitY=0.5;exitDx=0;exitDy=0;entryX=0;entryY=0.5;entryDx=0;entryDy=0;" edge="1" parent="1" source="s3CJ5mOEq1aCEsFTGVXM-15" target="s3CJ5mOEq1aCEsFTGVXM-17">
          <mxGeometry relative="1" as="geometry" />
        </mxCell>
        <mxCell id="s3CJ5mOEq1aCEsFTGVXM-19" value="Data incorrect" style="edgeLabel;html=1;align=center;verticalAlign=middle;resizable=0;points=[];" vertex="1" connectable="0" parent="s3CJ5mOEq1aCEsFTGVXM-18">
          <mxGeometry x="-0.125" y="-3" relative="1" as="geometry">
            <mxPoint as="offset" />
          </mxGeometry>
        </mxCell>
        <mxCell id="s3CJ5mOEq1aCEsFTGVXM-21" value="Data is correct" style="edgeStyle=orthogonalEdgeStyle;rounded=0;orthogonalLoop=1;jettySize=auto;html=1;exitX=0.5;exitY=1;exitDx=0;exitDy=0;entryX=0.5;entryY=0;entryDx=0;entryDy=0;" edge="1" parent="1" source="s3CJ5mOEq1aCEsFTGVXM-15" target="s3CJ5mOEq1aCEsFTGVXM-20">
          <mxGeometry relative="1" as="geometry" />
        </mxCell>
        <mxCell id="s3CJ5mOEq1aCEsFTGVXM-15" value="If" style="rhombus;whiteSpace=wrap;html=1;" vertex="1" parent="1">
          <mxGeometry x="480" y="470" width="140" height="70" as="geometry" />
        </mxCell>
        <mxCell id="s3CJ5mOEq1aCEsFTGVXM-25" style="edgeStyle=orthogonalEdgeStyle;rounded=0;orthogonalLoop=1;jettySize=auto;html=1;exitX=1;exitY=0.5;exitDx=0;exitDy=0;" edge="1" parent="1" source="s3CJ5mOEq1aCEsFTGVXM-17" target="s3CJ5mOEq1aCEsFTGVXM-24">
          <mxGeometry relative="1" as="geometry" />
        </mxCell>
        <mxCell id="s3CJ5mOEq1aCEsFTGVXM-26" value="If edited" style="edgeLabel;html=1;align=center;verticalAlign=middle;resizable=0;points=[];" vertex="1" connectable="0" parent="s3CJ5mOEq1aCEsFTGVXM-25">
          <mxGeometry x="0.4369" y="-4" relative="1" as="geometry">
            <mxPoint as="offset" />
          </mxGeometry>
        </mxCell>
        <mxCell id="s3CJ5mOEq1aCEsFTGVXM-17" value="Allow to edit and update" style="rounded=0;whiteSpace=wrap;html=1;" vertex="1" parent="1">
          <mxGeometry x="1155" y="480" width="120" height="60" as="geometry" />
        </mxCell>
        <mxCell id="s3CJ5mOEq1aCEsFTGVXM-20" value="Return data to Invoice view" style="rounded=0;whiteSpace=wrap;html=1;" vertex="1" parent="1">
          <mxGeometry x="490" y="650" width="120" height="60" as="geometry" />
        </mxCell>
        <mxCell id="s3CJ5mOEq1aCEsFTGVXM-22" value="Enter Vehicle details" style="rounded=0;whiteSpace=wrap;html=1;" vertex="1" parent="1">
          <mxGeometry x="1030" y="145" width="210" height="65" as="geometry" />
        </mxCell>
        <mxCell id="s3CJ5mOEq1aCEsFTGVXM-27" style="edgeStyle=orthogonalEdgeStyle;rounded=0;orthogonalLoop=1;jettySize=auto;html=1;" edge="1" parent="1" source="s3CJ5mOEq1aCEsFTGVXM-24" target="s3CJ5mOEq1aCEsFTGVXM-1">
          <mxGeometry relative="1" as="geometry">
            <Array as="points">
              <mxPoint x="1470" y="80" />
              <mxPoint x="200" y="80" />
            </Array>
          </mxGeometry>
        </mxCell>
        <mxCell id="s3CJ5mOEq1aCEsFTGVXM-24" value="Show an update button" style="rounded=0;whiteSpace=wrap;html=1;" vertex="1" parent="1">
          <mxGeometry x="1410" y="480" width="120" height="60" as="geometry" />
        </mxCell>
      </root>
    </mxGraphModel>
  </diagram>
</mxfile>
